<svg width="1200" height="720" viewBox="0 0 1200 720" fill="none" xmlns="http://www.w3.org/2000/svg">
  <defs>
    <linearGradient id="bg2" x1="0" y1="0" x2="1200" y2="720" gradientUnits="userSpaceOnUse">
      <stop stop-color="#122032"/>
      <stop offset="1" stop-color="#21344A"/>
    </linearGradient>
  </defs>
  <rect width="1200" height="720" rx="28" fill="url(#bg2)"/>

  <rect x="40" y="40" width="1120" height="82" rx="16" fill="#0D1522"/>
  <rect x="70" y="68" width="200" height="26" rx="10" fill="#FF6B1A"/>
  <rect x="300" y="72" width="130" height="18" rx="8" fill="#34465F"/>
  <rect x="450" y="72" width="130" height="18" rx="8" fill="#34465F"/>
  <rect x="600" y="72" width="130" height="18" rx="8" fill="#34465F"/>
  <rect x="760" y="60" width="180" height="42" rx="14" fill="#1E2D42"/>
  <rect x="960" y="60" width="170" height="42" rx="14" fill="#FF6B1A"/>

  <rect x="40" y="150" width="320" height="530" rx="22" fill="#0D1522"/>
  <rect x="380" y="150" width="780" height="250" rx="22" fill="#0D1522"/>
  <rect x="380" y="420" width="370" height="260" rx="22" fill="#0D1522"/>
  <rect x="790" y="420" width="370" height="260" rx="22" fill="#0D1522"/>

  <rect x="72" y="196" width="250" height="22" rx="9" fill="#2B3D54"/>
  <rect x="72" y="240" width="200" height="16" rx="8" fill="#243449"/>
  <rect x="72" y="270" width="220" height="16" rx="8" fill="#243449"/>
  <rect x="72" y="300" width="180" height="16" rx="8" fill="#243449"/>
  <rect x="72" y="358" width="250" height="180" rx="14" fill="#16263A"/>

  <rect x="420" y="190" width="700" height="42" rx="10" fill="#1D2D43"/>
  <rect x="440" y="255" width="150" height="120" rx="12" fill="#FF6B1A"/>
  <rect x="610" y="255" width="150" height="120" rx="12" fill="#2A3C54"/>
  <rect x="780" y="255" width="150" height="120" rx="12" fill="#2A3C54"/>
  <rect x="950" y="255" width="150" height="120" rx="12" fill="#2A3C54"/>

  <rect x="420" y="470" width="290" height="24" rx="10" fill="#2A3C54"/>
  <rect x="420" y="510" width="290" height="150" rx="12" fill="#16263A"/>
  <rect x="830" y="470" width="290" height="24" rx="10" fill="#2A3C54"/>
  <path d="M830 620L870 560L910 600L960 540L1010 620L1060 570L1120 620" stroke="#FFB08A" stroke-width="8" stroke-linecap="round"/>
</svg>
