<svg width="1200" height="720" viewBox="0 0 1200 720" fill="none" xmlns="http://www.w3.org/2000/svg">
  <defs>
    <linearGradient id="bg3" x1="0" y1="0" x2="1200" y2="720" gradientUnits="userSpaceOnUse">
      <stop stop-color="#162733"/>
      <stop offset="1" stop-color="#2A3E50"/>
    </linearGradient>
  </defs>
  <rect width="1200" height="720" rx="28" fill="url(#bg3)"/>

  <rect x="30" y="30" width="1140" height="80" rx="16" fill="#0E1722"/>
  <rect x="60" y="56" width="220" height="28" rx="10" fill="#FF6B1A"/>
  <rect x="330" y="60" width="140" height="20" rx="8" fill="#34485D"/>
  <rect x="490" y="60" width="140" height="20" rx="8" fill="#34485D"/>
  <rect x="650" y="60" width="140" height="20" rx="8" fill="#34485D"/>

  <rect x="40" y="140" width="540" height="540" rx="22" fill="#0E1722"/>
  <rect x="620" y="140" width="540" height="260" rx="22" fill="#0E1722"/>
  <rect x="620" y="420" width="540" height="260" rx="22" fill="#0E1722"/>

  <rect x="70" y="180" width="480" height="210" rx="18" fill="#FF6B1A"/>
  <rect x="95" y="220" width="300" height="28" rx="10" fill="#FFF2E8"/>
  <rect x="95" y="264" width="390" height="16" rx="8" fill="#FFD4BD"/>
  <rect x="95" y="292" width="350" height="16" rx="8" fill="#FFD4BD"/>
  <rect x="95" y="330" width="190" height="42" rx="14" fill="#FFF2E8"/>

  <rect x="70" y="420" width="150" height="230" rx="12" fill="#213248"/>
  <rect x="235" y="460" width="150" height="190" rx="12" fill="#FF6B1A"/>
  <rect x="400" y="500" width="150" height="150" rx="12" fill="#FFE1D2"/>

  <rect x="650" y="180" width="220" height="180" rx="16" fill="#213248"/>
  <rect x="890" y="180" width="240" height="180" rx="16" fill="#213248"/>
  <circle cx="760" cy="270" r="54" fill="#FF6B1A"/>
  <path d="M960 330L1020 240L1080 330Z" fill="#FFB08A"/>

  <rect x="650" y="460" width="480" height="170" rx="16" fill="#213248"/>
  <path d="M680 580C730 520 760 560 810 510C860 460 920 500 970 460C1020 420 1060 470 1110 440" stroke="#FF6B1A" stroke-width="8" stroke-linecap="round"/>
  <rect x="680" y="520" width="160" height="14" rx="7" fill="#3A4E64"/>
  <rect x="680" y="548" width="130" height="14" rx="7" fill="#3A4E64"/>
</svg>
